<?xml version="1.0" encoding="utf-8"?>
<!-- Generator: Adobe Illustrator 16.0.3, SVG Export Plug-In . SVG Version: 6.00 Build 0)  -->
<!DOCTYPE svg PUBLIC "-//W3C//DTD SVG 1.1//EN" "http://www.w3.org/Graphics/SVG/1.1/DTD/svg11.dtd">
<svg version="1.1" id="Capa_1" xmlns="http://www.w3.org/2000/svg" xmlns:xlink="http://www.w3.org/1999/xlink" x="0px" y="0px"
	 width="512px" height="512px" viewBox="0 0 512 512" enable-background="new 0 0 512 512" xml:space="preserve">
<g>
	<path fill="#3D8D1D" d="M361.267,482L452,391.268V75L237.975,55l20,427H361.267z"/>
	<g>
		<path fill="#51BC27" d="M121.975,450.5c25.153,33.326,136,31.5,136,31.5V55L63.95,75C63.95,75,66.5,377,121.975,450.5z"/>
	</g>
	<path fill="#131F4C" d="M452,30L237.975,10l20,65H452V30z"/>
	<path fill="#263D97" d="M60.963,30l2.987,45h194.024V10L60.963,30z"/>
	<circle fill="#022400" cx="407" cy="437" r="75"/>
	<circle fill="#B4D2D7" cx="407" cy="437" r="45"/>
	<path fill="#B4D2D7" d="M257.975,105l-20,136l20,136c74.991,0,136-61.009,136-136S332.966,105,257.975,105z"/>
	<path fill="#E1EBF0" d="M121.975,241c0,74.991,61.009,136,136,136V105C182.984,105,121.975,166.009,121.975,241z"/>
	<path fill="#E1EBF0" d="M257.975,135l-20,106l20,106c58.449,0,106-47.551,106-106S316.424,135,257.975,135z"/>
	<path fill="#FFF5F5" d="M151.975,241c0,58.449,47.551,106,106,106V135C199.526,135,151.975,182.551,151.975,241z"/>
	<path fill="#295E14" d="M452,0H257.975l-10,15l10,15H452V0z"/>
	<path fill="#51BC27" d="M43.5,0c-6.895,0-8.303,20.197-3,25.5c5.474,5.474,20.463,4.5,20.463,4.5h197.012V0
		C257.975,0,96.5,0,43.5,0z"/>
</g>
<path fill-rule="evenodd" clip-rule="evenodd" fill="#11710B" d="M260.633,228.225c-14.869,22.236-29.877,43.673-45.654,64.574
	c-1.886,2.498-2.756,1.766-4.508,0.219c-10.026-8.857-14.004-20.613-14.334-33.289c-0.661-25.455,8.526-47.854,23.217-68.271
	c2.372-3.297,3.188-1.76,4.493,0.707c5.606,10.603,11.816,20.742,21.334,28.467C249.656,224.263,254.676,226.582,260.633,228.225z"
	/>
<path fill-rule="evenodd" clip-rule="evenodd" fill="#11710B" d="M281.217,203.027c10.84,7.484,21.813,7.742,33.511,1.6
	c1.06,8.588-0.705,16.43-2.271,24.266c-2.751,13.762-9.134,25.775-17.755,36.736c-2.445,3.109-5.21,4.082-9.23,4.434
	c-14.463,1.261-24.823-5.423-33.764-15.699c-1.665-1.916-2.125-3.178-0.509-5.513C261.483,233.984,271.479,218.922,281.217,203.027z
	"/>
<path fill-rule="evenodd" clip-rule="evenodd" fill="#11710B" d="M288.93,272.345c-14.637,15.007-31.158,25.681-52.01,28.374
	c-6.03,0.779-11.825-0.637-17.571-2.43c-2.799-0.871-2.313-2.067-1.022-3.838c9.178-12.604,18.351-25.209,27.473-37.854
	c1.541-2.136,2.462-1.712,4.151,0.042c5.773,5.995,11.946,11.457,20.392,13.568c4.116,1.028,8.153,1.672,12.281,1.918
	C284.557,272.24,286.742,270.454,288.93,272.345z"/>
<path fill-rule="evenodd" clip-rule="evenodd" fill="#0D5408" d="M307.708,150.024c3.555,4.788,4.089,9.789,5.044,14.458
	c2.26,11.05,3.085,22.277,3.146,33.572c0.016,2.898-1.058,4.491-3.409,5.961c-8.25,5.16-19.33,4.813-26.966-1.188
	c-1.29-1.014-3.162-1.871-1.68-4.371C292.916,183.157,301.824,167.761,307.708,150.024z"/>
<path fill-rule="evenodd" clip-rule="evenodd" fill="#11710B" d="M219.753,301.184c-3.16,3.221-5.106,6.975-6.88,10.885
	c-2.908,6.411-3.079,6.392-9.493,3.807c-1.041-0.42-2.052-0.914-3.292-1.471c4.307-4.646,6.692-10.061,7.813-15.994
	c0.445-2.357,1.146-2.787,3.226-1.614C213.836,298.324,216.671,299.631,219.753,301.184z"/>
<path fill="#0D5408" d="M296.066,158.455c-11.176,7.798-24.442,9.531-37.316,12.44l-1.344,54.176
	c3.203,1.391,5.227,0.868,7.159-2.066c11.438-17.379,22.374-35.048,31.883-53.535c2.618-5.091,5.333-10.213,6.778-16.683
	C300.414,155.023,298.335,156.871,296.066,158.455z"/>
<g>
	<path fill="#11710B" d="M227.759,183.805c-2.231,1.843-2.645,3.449-1.16,5.894c3.005,4.952,5.515,10.242,8.853,14.951
		c5.881,8.299,12.525,15.896,22.2,20.156l1.324-54.176C247.815,173.187,236.871,176.274,227.759,183.805z"/>
</g>
<path fill-rule="evenodd" clip-rule="evenodd" fill="#0D5408" d="M257.975,260.674c7.534,6.552,16.278,10.366,27.497,9.389
	c4.021-0.352,6.785-1.324,9.23-4.434c8.621-10.961,15.004-22.975,17.755-36.736c1.565-7.836,3.33-15.678,2.271-24.266
	c-11.698,6.143-22.671,5.885-33.511-1.6c-7.586,12.381-15.33,24.254-23.242,35.926V260.674"/>
<path fill-rule="evenodd" clip-rule="evenodd" fill="#0D5408" d="M257.975,294.815c11.507-5.1,21.617-12.897,30.955-22.472
	c-2.188-1.891-4.373-0.104-6.307-0.219c-4.128-0.246-8.165-0.891-12.281-1.918c-4.725-1.182-8.737-3.412-12.367-6.197V294.815z"/>
</svg>
