<?xml version="1.0" standalone="no"?>
<!DOCTYPE svg PUBLIC "-//W3C//DTD SVG 20010904//EN"
 "http://www.w3.org/TR/2001/REC-SVG-20010904/DTD/svg10.dtd">
<svg version="1.0" xmlns="http://www.w3.org/2000/svg"
 width="512.000000pt" height="512.000000pt" viewBox="0 0 512.000000 512.000000"
 preserveAspectRatio="xMidYMid meet">
<metadata>
Created by potrace 1.11, written by Peter Selinger 2001-2013
</metadata>
<g transform="translate(0.000000,512.000000) scale(0.100000,-0.100000)"
fill="#000000" stroke="none">
<path d="M2945 4064 c-48 -25 -72 -53 -85 -99 -14 -49 -8 -84 22 -133 38 -61
58 -66 306 -68 123 -1 225 -4 227 -6 2 -2 -33 -62 -78 -133 l-83 -129 -139 -2
c-359 -4 -1138 -16 -1207 -18 -43 -1 -78 0 -78 1 0 2 7 14 15 27 9 13 20 38
25 57 21 71 -35 168 -107 186 -21 5 -135 9 -253 8 -195 -1 -219 -3 -249 -20
-51 -30 -74 -67 -78 -127 -4 -45 0 -59 23 -95 30 -45 81 -73 132 -73 21 0 31
-7 39 -27 6 -16 24 -49 40 -76 l28 -47 -86 -168 c-68 -131 -91 -167 -105 -165
-11 1 -59 9 -109 18 -180 34 -407 6 -574 -72 -156 -72 -312 -206 -406 -348
-73 -110 -112 -206 -152 -370 -11 -48 -10 -258 2 -329 62 -359 314 -652 655
-764 104 -34 158 -43 275 -47 438 -14 818 253 959 675 l25 75 88 -1 c48 -1
147 -5 218 -9 231 -13 248 -13 275 -3 24 8 90 61 90 71 0 3 97 159 216 348
119 189 334 531 476 759 143 228 266 421 272 428 10 10 19 -11 44 -100 18 -62
50 -174 72 -248 22 -74 40 -137 40 -140 0 -3 -24 -18 -53 -34 -205 -114 -366
-309 -445 -538 -173 -497 92 -1045 592 -1228 107 -39 164 -50 296 -55 369 -14
715 183 889 506 86 160 119 298 115 481 -2 125 -4 139 -30 242 -69 269 -295
528 -557 639 -128 54 -200 68 -357 73 -140 4 -145 5 -152 27 -3 12 -16 54 -27
92 -100 344 -145 497 -174 595 l-34 116 19 34 c37 67 13 153 -56 204 -26 20
-41 21 -399 23 -321 3 -376 1 -402 -13z m101 -900 c-3 -7 -27 -48 -55 -91 -55
-85 -286 -452 -432 -685 -50 -82 -95 -148 -99 -148 -3 0 -13 12 -21 28 -8 15
-16 29 -19 32 -3 3 -11 16 -19 30 -8 14 -124 205 -258 424 -133 220 -241 401
-239 403 2 2 198 6 437 9 239 4 435 7 436 8 1 0 63 1 138 2 105 0 135 -2 131
-12z m-1049 -777 c89 -148 163 -271 163 -274 0 -7 -198 2 -206 10 -3 3 -13 37
-21 74 -8 37 -16 75 -18 83 -1 9 -17 52 -35 98 -54 140 -178 308 -297 402
l-31 24 35 71 c20 38 41 76 46 83 7 8 37 -33 105 -145 52 -87 169 -279 259
-426z m-910 278 c18 -3 33 -8 33 -11 0 -2 -67 -137 -150 -299 -164 -322 -171
-345 -129 -414 47 -77 64 -82 339 -95 91 -5 244 -14 358 -21 30 -2 56 -6 59
-9 9 -8 -35 -105 -73 -162 -94 -142 -229 -233 -419 -283 -11 -2 -72 -5 -135
-5 -96 -1 -128 3 -190 23 -471 152 -616 734 -271 1089 98 101 243 175 371 189
30 3 56 6 57 7 5 4 117 -3 150 -9z m3231 -16 c374 -100 580 -508 440 -869
-119 -306 -456 -481 -772 -400 -178 45 -314 146 -408 302 -169 282 -97 656
165 854 33 24 63 44 67 44 4 0 10 -10 12 -22 3 -13 26 -95 52 -183 26 -88 65
-219 86 -292 41 -140 50 -159 94 -194 53 -41 155 -34 201 15 54 57 56 109 12
256 -15 52 -34 118 -42 145 -8 28 -34 120 -59 205 -25 85 -46 158 -46 161 0
12 126 -2 198 -22z m-2865 -181 c54 -59 92 -115 120 -179 23 -50 47 -122 47
-142 0 -8 -104 -5 -305 9 -44 3 -81 7 -83 8 -3 4 171 346 177 346 2 0 22 -19
44 -42z"/>
</g>
</svg>
